# xmcd CD database file
#
# Track frame offsets:
#	150
#	14490
#	28570
#	42090
#	56082
#	68617
#	83375
#	97892
#	111675
#	125085
#	138485
#	150272
#	164997
#	179495
#	192320
#	205465
#	218872
#	233570
#	248232
#	261240
#
# Disc length: 3677 seconds
#
# Revision: 0
# Processed by: cddbd v1.5.1PL0 Copyright (c) Steve Scherf et al.
# Submitted via: CDex 1.51
#
DISCID=200e5b14
DTITLE=Various Artist - Paramount Piano Blues 1928-1932
DYEAR=1991
DGENRE=Blues
TTITLE0=Evil Woman Blues - James Wiggins and Bob Call
TTITLE1=Forty-four Blues - James Wiggins and Blind Leroy Garnett
TTITLE2=Chain 'em Down - James Wiggins and Blind Leroy Garnett
TTITLE3=Louisiana Glide - Blind Leroy Garnett
TTITLE4=Mississippi Blues - Charlie Spand
TTITLE5=Moanin' the Blues - Charlie Spand and Blind Blake
TTITLE6=Hastings Street - Charlie Spand and Blind Blake
TTITLE7=Pitchin' Boogie - Will Ezell and Baby Jay, Roosevelt and Uaroy Graves
TTITLE8=Heifer Dust - Will Ezell
TTITLE9=Henry Brown Blues - Henry Brown
TTITLE10=Down in Tennessee - Lonnie Clark
TTITLE11=Dearborn St.Breakdown - Charles Avery
TTITLE12=All Night Long Blues - Louise Johnson and Son House and Willie Brown
TTITLE13=By the Moon and Stars - Louise Johnson
TTITLE14=No Special Rider - Eurreal "Little Brother" Montgomery
TTITLE15=Vicksburg Blues - Eurreal "Little Brother" Montgomery
TTITLE16=Fanny Lee Blues - Wesley Wallace
TTITLE17=No. 29 - Wesley Wallace
TTITLE18=If You Haven't Any Hay - Skip James
TTITLE19=Fat Mama Blues - Jabo Williams
EXTD=YEAR: 1991
EXTT0=
EXTT1=
EXTT2=
EXTT3=
EXTT4=
EXTT5=
EXTT6=
EXTT7=
EXTT8=
EXTT9=
EXTT10=
EXTT11=
EXTT12=
EXTT13=
EXTT14=
EXTT15=
EXTT16=
EXTT17=
EXTT18=
EXTT19=
PLAYORDER=
